<svg xmlns="http://www.w3.org/2000/svg" viewBox="0 0 120 120">
  <rect width="120" height="120" rx="28" fill="#755642" />
  <g transform="translate(15, 15)">
    <!-- Shadow sparkle -->
    <g transform="translate(24, 18) scale(0.65)">
      <path d="M 45 0 C 45 35 55 45 90 45 C 55 45 45 55 45 90 C 45 55 35 45 0 45 C 35 45 45 35 45 0 Z" fill="#FFFFFF" opacity="0.5"/>
    </g>
    <!-- Main sparkle -->
    <path d="M 45 0 C 45 35 55 45 90 45 C 55 45 45 55 45 90 C 45 55 35 45 0 45 C 35 45 45 35 45 0 Z" fill="#FFFFFF"/>
  </g>
</svg>
